HIERARCHY
ROOT Hips
{
	OFFSET 0.000000 0.000000 0.000000
	CHANNELS 6 Xposition Yposition Zposition Xrotation Yrotation Zrotation
	JOINT LeftUpLeg_virtual
	{
		OFFSET 0.000000 0.000000 0.000000
		CHANNELS 3 Xrotation Yrotation Zrotation
		JOINT LeftUpLeg
		{
			OFFSET 15.427100 -6.655098 0.678600
			CHANNELS 3 Xrotation Yrotation Zrotation
			JOINT LeftLeg
			{
				OFFSET 4.081073 -39.591068 13.024000
				CHANNELS 3 Xrotation Yrotation Zrotation
				JOINT LeftFoot
				{
					OFFSET -4.081074 -37.707932 -15.979700
					CHANNELS 3 Xrotation Yrotation Zrotation
					JOINT LeftToeBase
					{
						OFFSET 5.346399 -15.068900 20.645000
						CHANNELS 3 Xrotation Yrotation Zrotation
						JOINT LeftToe_End
						{
							OFFSET 2.754700 0.931300 11.300900
							CHANNELS 3 Xrotation Yrotation Zrotation
							End Site
							{
								OFFSET 0 0 0
							}
						}
					}
				}
			}
		}
	}
	JOINT RightUpLeg_virtual
	{
		OFFSET 0.000000 0.000000 0.000000
		CHANNELS 3 Xrotation Yrotation Zrotation
		JOINT RightUpLeg
		{
			OFFSET -15.569500 -6.655098 0.678600
			CHANNELS 3 Xrotation Yrotation Zrotation
			JOINT RightLeg
			{
				OFFSET -4.081825 -39.591045 13.023800
				CHANNELS 3 Xrotation Yrotation Zrotation
				JOINT RightFoot
				{
					OFFSET 4.081824 -37.707954 -15.979600
					CHANNELS 3 Xrotation Yrotation Zrotation
					JOINT RightToeBase
					{
						OFFSET -5.346400 -15.068900 20.645000
						CHANNELS 3 Xrotation Yrotation Zrotation
						JOINT RightToe_End
						{
							OFFSET -2.754700 0.931300 11.300900
							CHANNELS 3 Xrotation Yrotation Zrotation
							End Site
							{
								OFFSET 0 0 0
							}
						}
					}
				}
			}
		}
	}
	JOINT Spine_virtual
	{
		OFFSET 0.000000 0.000000 0.000000
		CHANNELS 3 Xrotation Yrotation Zrotation
		JOINT Spine
		{
			OFFSET -0.279200 12.230698 -2.892100
			CHANNELS 3 Xrotation Yrotation Zrotation
			JOINT Spine1
			{
				OFFSET -0.232667 10.192268 -1.242267
				CHANNELS 3 Xrotation Yrotation Zrotation
				JOINT Spine1_split
				{
					OFFSET -0.232667 10.192268 -1.242267
					CHANNELS 3 Xrotation Yrotation Zrotation
					JOINT Spine2
					{
						OFFSET -0.232667 10.192268 -1.242267
						CHANNELS 3 Xrotation Yrotation Zrotation
						JOINT Neck_virtual
						{
							OFFSET 0.000000 0.000000 0.000000
							CHANNELS 3 Xrotation Yrotation Zrotation
							JOINT Neck
							{
								OFFSET -0.418800 17.814194 8.416900
								CHANNELS 3 Xrotation Yrotation Zrotation
								JOINT Head
								{
									OFFSET 0.000000 7.031097 3.806800
									CHANNELS 3 Xrotation Yrotation Zrotation
									JOINT HeadTop_End
									{
										OFFSET 0.000000 24.646606 12.978600
										CHANNELS 3 Xrotation Yrotation Zrotation
										End Site
										{
											OFFSET 0 0 0
										}
									}
								}
							}
						}
						JOINT LeftShoulder_virtual
						{
							OFFSET 0.000000 0.000000 0.000000
							CHANNELS 3 Xrotation Yrotation Zrotation
							JOINT LeftShoulder
							{
								OFFSET 8.476499 7.247704 -3.868750
								CHANNELS 3 Xrotation Yrotation Zrotation
								JOINT LeftShoulder_split
								{
									OFFSET 8.476499 7.247704 -3.868750
									CHANNELS 3 Xrotation Yrotation Zrotation
									JOINT LeftArm
									{
										OFFSET 9.308998 -2.777710 0.208600
										CHANNELS 3 Xrotation Yrotation Zrotation
										JOINT LeftForeArm
										{
											OFFSET 29.972298 0.000000 0.000000
											CHANNELS 3 Xrotation Yrotation Zrotation
											JOINT LeftHand
											{
												OFFSET 26.026505 0.000000 0.000000
												CHANNELS 3 Xrotation Yrotation Zrotation
												End Site
												{
													OFFSET 0 0 0
												}
											}
										}
									}
								}
							}
						}
						JOINT RightShoulder_virtual
						{
							OFFSET 0.000000 0.000000 0.000000
							CHANNELS 3 Xrotation Yrotation Zrotation
							JOINT RightShoulder
							{
								OFFSET -7.570500 7.247704 -3.868750
								CHANNELS 3 Xrotation Yrotation Zrotation
								JOINT RightShoulder_split
								{
									OFFSET -7.570500 7.247704 -3.868750
									CHANNELS 3 Xrotation Yrotation Zrotation
									JOINT RightArm
									{
										OFFSET -9.308998 -2.777710 0.208500
										CHANNELS 3 Xrotation Yrotation Zrotation
										JOINT RightForeArm
										{
											OFFSET -29.972300 0.000000 0.000000
											CHANNELS 3 Xrotation Yrotation Zrotation
											JOINT RightHand
											{
												OFFSET -26.026505 0.000000 0.000000
												CHANNELS 3 Xrotation Yrotation Zrotation
												End Site
												{
													OFFSET 0 0 0
												}
											}
										}
									}
								}
							}
						}
					}
				}
			}
		}
	}
}
MOTION
Frames: 10
Frame Time: 0.03333333
7.755027 83.993286 0.948647 0.000000 0.000000 0.000000 6.181227 -14.229448 -2.057962 -33.808149 2.162589 16.295021 48.226603 9.918347 -1.120955 -16.741166 5.171975 -12.498808 -1.815555 -3.004892 -3.411915 0.000000 0.000000 0.000000 5.485489 -10.130158 -1.210175 -20.813581 -5.841761 -17.568647 44.532550 -10.975861 -11.620063 -9.024440 4.326520 11.990716 -20.542465 -5.663505 9.786711 0.000000 0.000000 0.000000 6.867356 -8.692534 -0.376031 12.692525 2.996062 -2.436486 8.321003 6.511561 -2.605357 0.075825 -1.724699 1.149062 0.000000 0.000000 0.000000 -1.715273 6.070713 -0.793140 -6.001273 1.133578 -0.127303 -7.739131 8.182886 6.110085 0.000000 0.000000 0.000000 -3.135162 6.100632 -0.885861 -2.176611 0.298871 -3.216420 1.037382 -1.788488 1.295462 -14.045101 1.035507 -55.399196 -12.942017 -32.141538 -5.066455 0.000000 0.000000 0.000000 -3.656122 5.392516 -0.854352 5.146719 -8.955421 9.724330 2.263697 -2.385944 -2.280444 22.964942 58.023249 24.919633 16.367008 29.554587 4.934931 0.000000 0.000000 0.000000 
7.758457 84.746193 0.860008 0.000000 0.000000 0.000000 6.529812 -14.316388 -2.595946 -32.820343 1.370049 16.482291 45.441768 10.068533 -0.575429 -15.336537 4.833412 -11.858448 -1.780657 -3.076901 -3.673070 0.000000 0.000000 0.000000 5.578572 -10.208957 -1.893302 -19.977040 -6.687014 -15.100486 41.716227 -8.478813 -10.080636 -10.725595 5.031277 12.689545 -17.205101 -4.046537 7.446919 0.000000 0.000000 0.000000 6.923178 -8.566297 -0.890723 12.898198 3.178735 -2.065561 7.990047 6.536144 -2.460465 -0.031729 -1.819021 1.049381 0.000000 0.000000 0.000000 -2.055280 6.004657 -0.571029 -6.191579 1.231300 -0.276331 -7.320978 7.720437 6.738225 0.000000 0.000000 0.000000 -3.486080 6.046848 -0.818730 -2.160081 1.058500 -3.619727 1.240491 -1.979656 1.508114 -14.112738 1.522901 -55.510843 -12.165486 -30.922971 -4.263309 0.000000 0.000000 0.000000 -3.980673 5.389208 -0.703628 4.677437 -7.512893 9.399423 2.135461 -2.181737 -2.821368 15.259770 54.279821 30.832949 15.363710 26.694300 6.716911 0.000000 0.000000 0.000000 
7.708628 85.501900 0.756645 0.000000 0.000000 0.000000 6.622210 -14.514120 -3.000608 -31.640759 0.907813 16.636744 42.861189 10.183093 -0.122523 -14.427883 4.669551 -10.933780 -1.755367 -3.143063 -3.913731 0.000000 0.000000 0.000000 5.511843 -10.441383 -2.433056 -18.281768 -6.639232 -12.892205 37.712927 -6.624214 -9.017826 -12.715170 4.446597 13.184253 -13.823740 -2.851906 5.761327 0.000000 0.000000 0.000000 6.655726 -8.639015 -1.325125 13.128635 3.338453 -1.666791 7.607639 6.515743 -2.363985 0.019959 -2.013082 0.981040 0.000000 0.000000 0.000000 -2.420407 5.910040 -0.427649 -6.291420 1.336145 -0.399041 -6.845979 7.092236 7.456102 0.000000 0.000000 0.000000 -3.843422 5.949030 -0.820389 -2.127555 1.774942 -3.980745 1.321614 -2.047704 1.587922 -14.057383 2.185910 -55.686952 -11.410182 -29.643349 -3.519066 0.000000 0.000000 0.000000 -4.323339 5.346032 -0.621989 4.125201 -6.223341 8.920470 1.785903 -1.944045 -2.954558 9.308530 49.521242 36.425815 15.385848 24.513218 6.885134 0.000000 0.000000 0.000000 
7.658105 86.127083 0.626060 0.000000 0.000000 0.000000 6.453868 -14.689042 -3.264158 -30.449830 0.837314 16.664497 40.771216 10.251482 0.151211 -13.975070 4.736168 -9.916491 -1.799890 -3.167387 -4.089985 0.000000 0.000000 0.000000 5.317306 -10.582983 -2.834797 -16.151948 -5.794449 -11.155653 33.156282 -5.227265 -8.456543 -14.660402 3.067839 13.515315 -10.796595 -2.111781 4.958621 0.000000 0.000000 0.000000 6.103264 -8.823136 -1.622828 13.328875 3.411481 -1.304638 7.195890 6.453150 -2.277532 0.195578 -2.179690 0.987794 0.000000 0.000000 0.000000 -2.819065 5.796979 -0.327011 -6.257815 1.393391 -0.540958 -6.374082 6.291117 8.259578 0.000000 0.000000 0.000000 -4.217208 5.825609 -0.831151 -2.088688 2.420554 -4.196730 1.270210 -2.154759 1.644076 -13.862135 2.785305 -55.909651 -10.688553 -28.474119 -2.840809 0.000000 0.000000 0.000000 -4.681291 5.274535 -0.556119 3.538832 -5.090938 8.435449 1.265996 -1.938374 -2.767728 5.333145 44.380582 41.548338 15.989193 22.911043 5.914331 0.000000 0.000000 0.000000 
7.626710 86.657379 0.545387 0.000000 0.000000 0.000000 6.125656 -14.616905 -3.380319 -29.320687 1.124402 16.579861 39.153834 10.232972 0.221229 -13.761772 4.951494 -9.105750 -2.006453 -3.144740 -4.144812 0.000000 0.000000 0.000000 5.011680 -10.627900 -3.048981 -13.982178 -4.571352 -10.076444 29.005908 -4.257494 -8.239933 -16.268394 1.410255 13.578964 -8.229188 -1.681059 4.929407 0.000000 0.000000 0.000000 5.415738 -9.107619 -1.790829 13.443181 3.365728 -1.026808 6.789157 6.367035 -2.166495 0.362956 -2.285457 1.053874 0.000000 0.000000 0.000000 -3.246165 5.679058 -0.229065 -6.080136 1.396815 -0.780896 -5.930009 5.317665 9.120536 0.000000 0.000000 0.000000 -4.601322 5.697341 -0.798113 -2.041101 2.967069 -4.229322 1.210314 -2.279015 1.656741 -13.643315 3.125772 -56.196700 -10.024555 -27.524138 -2.210715 0.000000 0.000000 0.000000 -5.030527 5.191436 -0.462820 2.946693 -4.112924 8.054162 0.827219 -2.034642 -2.584326 3.196488 39.521435 46.026073 16.706004 21.900848 4.372723 0.000000 0.000000 0.000000 
7.533822 87.111755 0.405235 0.000000 0.000000 0.000000 5.712678 -14.334054 -3.353076 -28.192282 1.613579 16.346164 37.925069 10.062327 0.132016 -13.532922 5.207801 -8.635536 -2.353362 -3.094827 -4.101474 0.000000 0.000000 0.000000 4.633737 -10.397939 -3.112958 -12.276376 -3.445916 -9.720682 25.794045 -3.538291 -8.178801 -17.220082 -0.005180 13.506424 -6.207261 -1.406926 5.344667 0.000000 0.000000 0.000000 4.786303 -9.325715 -1.850734 13.428516 3.231379 -0.843160 6.410214 6.278038 -2.016664 0.406616 -2.216750 1.084796 0.000000 0.000000 0.000000 -3.679720 5.566795 -0.106325 -5.760177 1.345814 -1.168114 -5.473034 4.249847 9.982386 0.000000 0.000000 0.000000 -4.994089 5.579846 -0.697644 -1.981698 3.403006 -4.105734 1.138578 -2.471533 1.649542 -13.450336 3.179313 -56.557354 -9.458470 -26.891059 -1.650599 0.000000 0.000000 0.000000 -5.351539 5.113016 -0.321326 2.373791 -3.282027 7.735920 0.526257 -2.423397 -2.494161 2.397132 35.265462 50.005809 17.130297 21.408200 2.706059 0.000000 0.000000 0.000000 
7.388670 87.539200 0.388866 0.000000 0.000000 0.000000 5.333352 -14.022542 -3.214753 -27.063957 2.196538 15.986848 36.768179 9.727994 -0.028054 -13.181278 5.418127 -8.470138 -2.642609 -3.053891 -4.005039 0.000000 0.000000 0.000000 4.167011 -9.944935 -3.070617 -11.191033 -2.953830 -10.024919 23.894223 -3.051188 -7.998739 -17.148433 -0.859559 13.682513 -5.226859 -1.170497 5.792357 0.000000 0.000000 0.000000 4.265016 -9.362251 -1.794431 13.288050 3.036354 -0.740141 6.081228 6.203346 -1.842134 0.392281 -2.032605 1.036646 0.000000 0.000000 0.000000 -4.113849 5.468537 0.032341 -5.308581 1.281098 -1.752683 -4.914740 3.157639 10.781047 0.000000 0.000000 0.000000 -5.392272 5.483832 -0.552937 -1.913762 3.713289 -3.920313 1.181879 -2.691355 1.602010 -13.319579 2.954210 -57.022148 -9.013426 -26.519099 -1.186793 0.000000 0.000000 0.000000 -5.629937 5.056657 -0.143701 1.835160 -2.595663 7.424064 0.319391 -3.043885 -2.611238 2.488000 31.692689 53.436494 16.933349 21.481244 1.266447 0.000000 0.000000 0.000000 
7.179906 87.990196 0.487698 0.000000 0.000000 0.000000 5.028073 -13.754417 -2.990147 -25.842480 2.769866 15.576791 35.494372 9.291251 -0.191238 -12.744926 5.600433 -8.473521 -2.613582 -3.047594 -3.945242 0.000000 0.000000 0.000000 3.683902 -9.544794 -2.907358 -10.703396 -3.206498 -10.702612 22.964850 -2.766286 -7.684243 -16.294497 -1.149376 14.121340 -5.315768 -0.914489 5.988757 0.000000 0.000000 0.000000 3.907679 -9.260779 -1.664564 13.043037 2.823347 -0.706935 5.800539 6.147660 -1.667091 0.271882 -1.831138 0.895231 0.000000 0.000000 0.000000 -4.534187 5.390476 0.173245 -4.778789 1.259148 -2.534915 -4.230815 2.118100 11.487969 0.000000 0.000000 0.000000 -5.780039 5.405346 -0.395553 -1.836627 3.926123 -3.788208 1.293461 -2.870425 1.473948 -13.200606 2.651579 -57.612051 -8.727524 -26.246349 -0.831281 0.000000 0.000000 0.000000 -5.869692 5.018678 0.043127 1.343820 -2.030650 7.118456 -0.006445 -3.745920 -2.653264 3.130022 28.619596 56.430528 15.991872 21.891533 0.277282 0.000000 0.000000 0.000000 
6.881824 88.409210 0.644341 0.000000 0.000000 0.000000 4.755054 -13.561388 -2.745462 -24.586108 3.301499 15.135419 34.014547 8.781865 -0.303155 -12.223625 5.796983 -8.584271 -2.269467 -3.068775 -3.967405 0.000000 0.000000 0.000000 3.236348 -9.259725 -2.689676 -10.580623 -4.117040 -11.455639 22.489284 -2.672292 -7.204653 -15.003750 -1.027861 14.540231 -5.819839 -0.567757 5.847763 0.000000 0.000000 0.000000 3.629414 -9.067610 -1.503137 12.732117 2.620545 -0.720108 5.567173 6.107369 -1.507471 0.131912 -1.599267 0.745443 0.000000 0.000000 0.000000 -4.938339 5.329410 0.304414 -4.235559 1.326026 -3.449717 -3.437199 1.201761 12.081876 0.000000 0.000000 0.000000 -6.155363 5.345276 -0.249466 -1.755172 4.088158 -3.796880 1.413052 -2.951688 1.324876 -13.047238 2.469868 -58.290542 -8.616489 -25.892672 -0.598069 0.000000 0.000000 0.000000 -6.093304 4.995147 0.212504 0.898601 -1.550520 6.822354 -0.459857 -4.300402 -2.527292 4.137924 25.866176 59.144493 14.330485 22.350640 -0.202372 0.000000 0.000000 0.000000 
6.558464 88.798424 0.856102 0.000000 0.000000 0.000000 4.456979 -13.467284 -2.537814 -23.415941 3.833171 14.790148 32.498706 8.214178 -0.320791 -11.453521 6.038511 -8.869234 -1.760474 -3.101678 -4.077334 0.000000 0.000000 0.000000 2.872702 -9.324667 -2.443908 -10.544764 -5.393596 -12.007860 21.864648 -2.780493 -6.626678 -13.781288 -0.686011 14.633805 -6.057484 -0.101421 5.437860 0.000000 0.000000 0.000000 3.340422 -8.933799 -1.360077 12.402405 2.431533 -0.755865 5.361761 6.076973 -1.364677 0.007965 -1.461119 0.700502 0.000000 0.000000 0.000000 -5.320605 5.279492 0.423437 -3.736017 1.477200 -4.405443 -2.595791 0.438235 12.556491 0.000000 0.000000 0.000000 -6.498519 5.294803 -0.115747 -1.678877 4.264217 -3.942805 1.554582 -2.898527 1.215286 -12.795458 2.510888 -59.035879 -8.641041 -25.426221 -0.464325 0.000000 0.000000 0.000000 -6.322912 4.973433 0.360759 0.504861 -1.107594 6.578404 -1.015961 -4.608428 -2.267921 5.422101 23.358993 61.678015 12.193161 22.653326 -0.226789 0.000000 0.000000 0.000000 
